<?xml version="1.0" ?><!DOCTYPE svg  PUBLIC '-//W3C//DTD SVG 1.0//EN'  'http://www.w3.org/TR/2001/REC-SVG-20010904/DTD/svg10.dtd'><svg enable-background="new 0 0 200 200" height="200px" id="Layer_1" version="1.0" viewBox="0 0 200 200" width="200px" xml:space="preserve" xmlns="http://www.w3.org/2000/svg" xmlns:xlink="http://www.w3.org/1999/xlink"><g id="New_Symbol"/><g id="New_Symbol_1_"/><g id="New_Symbol_1"/><g id="New_Symbol_9_2_"/><g id="New_Symbol_7"/><g id="New_Symbol_9_1_"/><g id="New_Symbol_9"/><g id="Nuevo_símbolo"/><g id="New_Symbol_10"/><g id="New_Symbol_12"/><g id="New_Symbol_14"/><g id="New_Symbol_15"/><g id="New_Symbol_16"/><g id="New_Symbol_17_1_"/><g id="New_Symbol_18"/><g id="New_Symbol_19"/><g id="New_Symbol_17"/><g><g><g><path d="M76,56.8c9.6,0,11.5,7.3,11.5,7.6c0.1,0.5,0.5,0.8,1,0.8c0.1,0,0.2,0,0.2,0c0.5-0.1,0.9-0.7,0.8-1.2     c-0.1-0.4-2.3-9.1-13.5-9.1c-0.2,0-0.2,0-0.3,0c-5.9,0.1-8.7,2.7-10,4.9c-1.4,2.4-1.4,5.4-1.4,5.5c0,0.6,0.5,1.8,1,1.8h0     c0.2,0,0.4-0.5,0.5-0.6c0.3-0.3,0.5-1,0.5-1.4c0-0.1,0-2.3,1.1-4.2c1.5-2.5,4.4-4,8.3-4C75.8,56.8,75.9,56.8,76,56.8z"/></g></g><g><g><path d="M98.6,65c0.6,0.1,1.1-0.2,1.2-0.8c0-0.1,1.7-7.8,11.6-7.9l0.3,0c8.9,0,9.3,7.3,9.3,8.1c0,0.6,0.5,1.7,1,1.7h0     c0.2,0,0.4-0.5,0.5-0.6c0.3-0.3,0.5-0.9,0.5-1.3c0-0.1-0.1-2.4-1.5-4.7c-1.4-2.1-4.2-4.4-9.9-4.4h-0.2c-11.5,0-13.5,9.1-13.5,9.2     c-0.1,0.3,0,0.3,0.1,0.6C98.1,64.9,98.4,64.9,98.6,65z"/></g></g><g><g><path d="M107.4,85.4c-0.3,0.1-2.6,0.8-5.3,0.8c-3.8,0-6.5-1.5-7.8-4.4c-0.2-0.4-0.5-0.6-0.9-0.6c-0.4,0-0.8,0.2-0.9,0.6     c-1.5,3-4.1,4.6-7.6,4.6c-3.1,0-5.7-1.2-6-1.3c-0.1-0.1-0.3-0.1-0.4-0.1c-0.4,0-0.7,0.2-0.9,0.6c-0.2,0.5,0,1.1,0.5,1.3     c1,0.5,3.6,1.5,6.8,1.5c2.4,0,5.8-0.6,8.2-3.7l0.4-0.5l0.4,0.5c2.3,2.8,5.9,3.4,8.5,3.4c1.9,0,4-0.3,5.7-0.9     c0.5-0.2,0.8-0.7,0.6-1.3C108.5,85.5,107.9,85.2,107.4,85.4z"/></g></g><g><g><circle cx="93.4" cy="73.8" r="3.3"/></g></g><g><g><path d="M96.3,112.7c-0.1,0-0.2,0-0.3,0c-3.1,0-6.2-0.6-9.1-1.8c-0.1,1.2,0.1,2.3,0.4,3.4c0.3,1.1,0.9,2.1,1.6,3     c0.7,0.9,1.6,1.7,2.6,2.3c1,0.6,2,1,3.2,1.2c-0.1-0.1-0.2-0.3-0.3-0.4c-0.1-0.1-0.2-0.3-0.2-0.4c-0.6-1.4-0.3-2.9,0.8-3.9     c0.5-0.4,1-0.7,1.6-0.8c0.1,0,0.2,0,0.3,0c0.5,0,1,0.2,1.3,0.7c0.3,0.4,0.4,0.8,0.3,1.3c-0.1,0.6-0.4,1.1-1,1.3     c-0.2,0.1-0.4,0.1-0.7,0.1c-0.3,0-0.7-0.1-1-0.3c-0.3-0.2-0.5-0.4-0.6-0.8c0,0,0,0.1,0,0.1c-0.2,1.2,0.1,2.5,0.7,3.4     c0,0,1,0,1.5,0c2.8-0.4,5-1.8,6.7-4.2c1-1.5,1.6-3.2,1.6-5.1c0-0.4,0-0.8,0-1.2C102.7,112,99.6,112.6,96.3,112.7z M93.6,114.6     c-0.9,0.8-1.5,1.8-1.7,2.9c-0.6-0.4-1.1-0.9-1.5-1.4c-0.5-0.7-0.9-1.4-1.2-2.2C90.7,114.2,92.1,114.4,93.6,114.6     C93.6,114.6,93.6,114.6,93.6,114.6z M102.4,115.6c-0.6,0.8-1.2,1.5-2,2c0,0,0-0.1,0-0.1c0.1-1-0.1-1.9-0.7-2.7     c-0.1-0.1-0.2-0.2-0.3-0.3c1.3-0.2,2.6-0.5,3.9-0.9C103.2,114.3,102.9,115,102.4,115.6z"/></g></g><g><g><path d="M104.5,157.5c-0.3-0.6-0.6-0.7-0.9-0.7c-0.1,0-0.3,0-0.5,0.1c-0.4,0.1-0.8,0.2-1.2,0.3c-0.6,0.1-1.1,0.3-1.6,0.5     c-1.1,0.5-2.1,1.1-3.1,1.7c-0.8,0.4-1.5,0.8-2.3,1.2c-0.3,0.1-0.6,0.3-1,0.3c-0.1,0-0.2,0.1-0.3,0.1H93l0-0.8c0-0.1,0-0.3,0-0.4     c0-0.4-0.1-0.8,0.3-1.2c0.6-0.6,1.2-1.1,1.8-1.4c2.1-1,4.2-2,6.3-3.1l1.8-0.9c-0.3-1.2-1.2-1.7-2.2-1.1c-1.4,0.8-2.9,1.6-4.3,2.5     c-6,3.4-12.1,7-18.8,9.6c0.7,0.5,1.7,0.6,2.7,0.2c1.5-0.5,2.9-1.2,4.3-2c0.4-0.2,0.7-0.4,1.1-0.6c0.5-0.3,1.1-0.4,1.7-0.4     c0.9,0,1.5,0.4,1.7,1c0.5,1.7-1.1,2.3-1.6,2.6c-0.3,0.1-0.5,0.2-0.7,0.3l-1.3,0.7c-1.7,0.8-3.3,1.6-5,2.5     c-0.3,0.2-0.4,0.2-0.4,0.3c0,0,0,0.1,0.1,0.2c0.3,0.5,0.6,1,0.9,1.5c0.7,1.1,1.3,2.2,2.1,3.3c1,1.3,2.2,1.5,3.8,0.6     c0.3-0.2,0.3-0.3,0.3-0.3c0,0,0-0.1-0.1-0.3c-0.3-0.5-0.6-0.9-0.9-1.4c-0.4-0.7-0.8-1.3-1.2-1.9c-0.5-0.6-0.6-1.2-0.5-1.8     c0.2-0.5,0.6-0.9,1.3-1.2c1.5-0.6,2.8-1,4.1-1.4c2.3-0.6,2.9,0.7,3.2,1.8c0.1,0.5,0.1,1.5-0.5,1.8c-0.4,0.2-1.1,0.2-1.7,0     c-0.3-0.1-0.5-0.3-0.6-0.5c-0.7,0-1.4,0-2,0.2c-0.1,0.1-0.1,0.2-0.2,0.3c0.5,0.9,1.1,1.8,1.9,2.5c0.2,0.2,0.5,0.3,0.7,0.3     c0.4,0,0.9-0.4,1.1-0.7c0.1-0.1,0.2-0.3,0.3-0.4c0.3-0.4,0.7-0.9,1.2-1.1c1.2-0.5,2.5-0.9,3.7-1.3c0.8-0.2,1.5-0.5,2.3-0.8     l0.5-0.2c0.8-0.3,1.7-0.6,2.4-1.1l0.2,0.3c0.6-0.4,1.1-0.3,2.2-0.3h0c0.8,0,1.6-0.9,2.1-1.7c0.3-0.4,0.4-0.9,0.3-1.2     C106.5,162,105.5,159.6,104.5,157.5z M104.2,164.7c0,0-0.1,0.1-0.1,0.2c-0.2,0.3-0.6,0.7-1,0.9c-0.5,0.2-1.4,0-1.9-0.4     c-0.3-0.2-1-0.8-1.3-0.8c-0.3,0-0.8,0.6-1.1,1.1l-0.1,0.2c-0.3,0.5-0.8,1.2-1.6,1.2c-0.3,0-0.7-0.1-1-0.4     c-1.6-1.2-1.3-2.4-0.9-3.3c1.1-2,4.1-3.6,6.4-3.2c1.6,0.3,2.7,1.9,2.8,4.1l0,0.3L104.2,164.7z"/></g></g><g><g><path d="M82.8,156.3c-1.2,1.1-2.7,2.2-4.6,2.3c-0.6,0-1.3,0.2-1.9,0.4c-0.1,0-0.1,0-0.2,0c0.7,0.5,1.6,0.8,2.6,0.9     c2.9,0.2,5.1-1.5,6.7-3c0.3-0.3,0.6-0.4,0.6-0.9c0.2-2.6,2.6-4.9,5.1-4.9h0c0.6,0,1-0.1,1.4,0.1c0.1,0.1,0.3,0,0.4,0.1l0.6,0.2     l-0.4,0.5c-0.1,0.1-0.1,0.2-0.2,0.3c-0.2,0.3-0.4,0.6-0.7,0.9c-0.4,0.3-0.8,0.6-1.2,0.9c1.1,0.3,2.1,0.2,3-0.5     c1.3-1.1,2.5-2.3,3.5-3.6c0.3-0.4,0.3-1.3,0-1.9c-0.1-0.3-0.9-0.7-1.4-0.7c-0.7,0-1.5,0.4-2.3,0.7l-0.3,0.1     c-0.6,0.2-1.1,0.5-1.6,0.8c-0.7,0.4-1.4,0.7-2.1,1c-0.4,0.2-0.9,0-1.4-0.1c-0.1,0-0.3-0.1-0.4-0.1l-0.8-0.2l0.3-0.7     c0-0.1,0.1-0.2,0.1-0.4c0.1-0.4,0.3-0.9,0.7-1.1c0.4-0.2,0.7-0.5,1.1-0.7c1.4-0.9,2.8-1.8,4.4-2.3c1.4-0.5,2.8-0.5,4.3-0.6     c0.5,0,1-0.1,1.5-0.1c0.6,0,0.7-0.2,0.7-0.2c0,0,0-0.2-0.2-0.6c-0.9-1.8-1.7-2.1-2.4-2.1c-0.4,0-1,0.1-1.6,0.4     c-2.3,0.9-4.6,2.3-6.6,3.5c-1.5,0.9-3,1.8-4.4,2.8c-1.4,0.9-2.9,1.9-4.4,2.7c-1.9,1.1-3.8,2.1-5.8,3.1l-0.7,0.3     c-0.3,0.1-0.4,0.3-0.4,0.3c0,0,0,0.1,0.1,0.2c0.5,0.6,1,0.8,1.1,0.8c1.4-0.1,2.7-0.6,3.9-1c0.4-0.1,0.8-0.4,1.2-0.6     c0.4-0.2,0.9-0.5,1.3-0.7c0.9-0.3,1.6-0.2,2,0.3c0.2,0.3,0.4,0.8,0.2,1.7C83.6,155.1,83.4,155.8,82.8,156.3z"/></g></g><g><g><path d="M77.5,145l0.5-0.4c0.5-0.4,1-0.8,1.8-0.8c0.5,0,0.9,0.2,1.4,0.5c1.1,0.8,2.4,0.8,4.1-0.1c0.4-0.2,0.6-0.4,0.7-0.6     c0-0.2-0.1-0.5-0.4-0.9c-0.4-0.5-1.6-1.8-0.3-3.3c2.3-2.3,4.5-3.6,7-4c0.7-0.1,1.5-0.4,2-0.8c0.5-0.3,0.9-0.9,0.5-1.6     c-0.4-0.7-1.3-1.1-2.3-1.1c-0.7,0-1.4,0.2-1.8,0.6l-1.2,1c-1.5,1.3-3.1,2.7-4.7,4.1c-0.4,0.3-1,0.4-1.4,0.5     c-0.2,0-0.4,0.1-0.5,0.1l-1,0.3l0.2-1c0-0.2,0.1-0.4,0.1-0.5c0.1-0.5,0.1-1.1,0.5-1.5c0.7-0.9,1.5-1.6,2.2-2.3L85,133     c0.5-0.4,0.7-0.9,0.7-1.2c0-0.4-0.3-0.8-0.7-1.2c-0.9-0.8-1.6-0.7-2.4,0.4c-0.7,0.9-1.3,1.8-2.2,2.5c-1.4,1.1-2.9,2.1-4.3,3.1     c-1,0.7-2,1.4-3,2.2c-0.2,0.1-0.4,0.4-0.5,0.5c0.2,0.3,0.5,0.6,0.6,0.7c0.8,0.1,1.8,0,2.6-0.1l0.6-0.1c0.3,0,0.5,0.2,0.8,0.1     c0.3-0.1,0.7,0.1,1,0.1c0,0,0,0,0,0c0.5,0,1.1,0.1,1.3,0.5c0.2,0.3,0.1,0.5,0.1,0.7c-0.1,0.2-0.2,0.5-0.5,0.6     c-0.5,0.3-1,0.6-1.5,1c-1.2,0.9-2.5,1.9-4.5,1.9c-0.4,0-0.7,0-1.1-0.1c-0.1,0.1-0.3,0.1-0.5,0.2c-0.6,0.2-1.4,0.5-2.1,0.8     c-0.2,0.1-0.3,0.2-0.3,0.3c0,0.2,0,0.4,0.2,0.6c0.5,0.8,2.3,1.4,3.6,1.4c0.5,0,0.9-0.1,1.1-0.2C75.1,146.9,76.3,145.9,77.5,145z"/></g></g><g><g><path d="M147.1,73.3c0.4,0,0.7-0.2,1.1-0.5c0.5-0.5,0.6-1,0.7-1.6c0-0.5-0.1-0.9-0.4-1.3c-0.3-0.4-0.7-0.6-1.1-0.6     c-0.2,0-0.4,0-0.6,0.1c-0.4,0.2-0.7,0.6-0.9,1c-0.3,0.7-0.3,1.4,0,2.1C146.2,73,146.6,73.3,147.1,73.3z"/></g></g><g><g><path d="M141.8,73c0.3,0.3,0.7,0.4,1,0.4c0.4,0,0.8-0.2,1.1-0.5c0.4-0.4,0.5-0.9,0.5-1.5c0-0.6-0.2-1.1-0.6-1.6     c-0.3-0.3-0.6-0.6-1.1-0.6c0,0-0.1,0-0.1,0c-0.6,0-1,0.3-1.3,0.8c-0.3,0.5-0.4,1-0.3,1.5C141.2,72.1,141.4,72.6,141.8,73z"/></g></g><g><g><path d="M140.9,76.5c0.2-0.4,0.3-0.9,0.2-1.3c-0.1-0.6-0.3-1.2-0.9-1.6c-0.3-0.2-0.6-0.3-0.8-0.3c-0.5,0-0.9,0.3-1.1,0.7     c-0.2,0.3-0.3,0.7-0.3,1c0,0.1,0,0.2,0,0.4c0.1,0.6,0.3,1.1,0.8,1.5c0.3,0.2,0.6,0.3,0.9,0.3C140.2,77.3,140.6,77,140.9,76.5z"/></g></g><g><g><path d="M148,77.6c-0.4-0.3-0.7-0.7-0.8-1.2c0-0.1-0.1-0.3-0.1-0.4c-0.1-0.3-0.2-0.6-0.4-0.8c-0.4-0.5-1-0.8-1.7-0.8h0     c0,0-0.1,0-0.1,0c-0.9,0.1-1.6,0.6-1.9,1.4c0,0.1-0.1,0.3-0.1,0.4c-0.2,0.6-0.5,1-0.9,1.4c-0.2,0.1-0.3,0.3-0.5,0.4     c-1,0.9-1,2.5,0,3.4c0.4,0.3,0.9,0.5,1.4,0.5c0.4,0,0.7-0.1,1.1-0.3c0.2-0.1,0.5,0.1,0.7,0.1c0.1,0,0.2,0.3,0.3,0.3     c0.1,0,0.3,0,0.4,0c0.3,0,0.5-0.2,0.8-0.1c0.3,0.2,0.7,0.1,1.1,0.1c0.1,0,0.2-0.1,0.3-0.1c0.9-0.1,1.5-0.6,1.8-1.5     c0.3-0.8,0.1-1.6-0.5-2.3C148.5,78,148.2,77.8,148,77.6z"/></g></g><g><g><path d="M150.5,72.9c-0.3,0-0.6,0.1-0.9,0.3c-0.9,0.6-1.2,2-0.7,3c0.2,0.4,0.4,0.7,0.9,0.8c0.1,0,0.3,0.1,0.4,0.1     c0.4,0,0.7-0.2,1-0.4c0.6-0.5,0.8-1.1,0.8-1.9c0-0.1,0-0.2,0-0.4c-0.1-0.4-0.2-0.8-0.6-1.1C151.1,73,150.8,72.9,150.5,72.9z"/></g></g><g><g><path d="M145.3,64.4c-5.3,0-10.5,4.3-10.5,9.6v27.3c-1-0.6-1.6-0.9-1.7-0.9c-0.1,0-0.3,0-0.3,0v-3c0-1.7-0.2-3.3-3.4-3.3h-6.4     c5.5-3,9.6-7.3,10.6-16.1c1-9.5,0.2-19.6-5-27.2c0.2-0.1,0.3-0.4,0.3-0.6c0.1-0.3,1.5-6.4,1.1-13.2c-0.5-9.3-4-15.4-10.3-17.5     c-5.8-2-11.9,0.3-17.6,6.8c-4.2,4.8-6.7,10-6.8,10.2c-0.1,0.1-0.1,0.3-0.1,0.4c-0.2,0-0.4,0-0.6,0c-0.4,0-0.8,0-1.2,0     c-0.6,0-1.2,0-1.8,0.1c0-0.1,0-0.3-0.1-0.4c-0.1-0.2-2.7-5.4-7-10.1c-5.9-6.3-12-8.5-17.8-6.3c-6.2,2.3-9.6,8.5-9.8,17.8     c-0.2,6.8,1.4,12.9,1.5,13.1c0.1,0.2,0.2,0.4,0.4,0.6c-5.9,8.3-6.7,19-4.6,27.2C56.6,86.9,60.6,91,65.4,94h-3.7     c-2.6,0-5.9-0.5-5.9,3.3v3.9c0,0.9,0.3,1.8,1,2.6c-1.7-0.5-3.4-0.8-4.8-0.8c-2.3,0-4.4,0.7-5.8,2.1c-3.5,3.5-2.6,10,2.1,16.7     c0,0-0.2,0.9-0.3,1.3c-0.1,0.7-3.3,17.2,2.5,26.7c-1.7,3.3-9.6,20.4,4,28.2c4.6,2.6,8.8,3.6,12.3,3.6c7.1,0,11.7-3.6,12.7-4.4     c4.5,2.8,9.4,4.3,14.1,4.3c3.4,0,6.8-0.8,9.9-2.5c2.1-1.1,3.9-2.6,5.5-4.4c0.6,0.6,7.3,6.8,16.5,6.8c3.3,0,7-0.8,10.8-3     c13.8-7.9,4.5-28.3,2.9-31.6c3.4-6.7,5-12.1,5.2-17.7c0.2,0,0.6,0,0.8,0c5.4,0,10.7-4.3,10.7-9.6V74     C155.8,68.7,150.7,64.4,145.3,64.4z M119.2,21.2c11.7,4.1,9,22.9,8.2,27.4c-0.8-0.9-1.5-1.9-2.5-2.7v-8.2c0-0.5-0.5-1-1.1-1     l-4.3-0.2l-1.4-3.6c-0.1-0.3-0.3-0.5-0.6-0.6c-0.3-0.1-0.6-0.1-0.8,0.1l-3.6,2.1l-1.4-1.8c-0.3-0.4-0.9-0.5-1.3-0.2l-7.7,4.8     c-1.6-0.2-3.4-0.3-5.2-0.4C98.8,34,107.9,17.3,119.2,21.2z M122.8,38.6v5.6c-4-3.1-9.8-5.5-17.1-6.6l4.8-3.1l1.4,1.8     c0.3,0.4,0.8,0.5,1.3,0.2l3.3-1.9l1.2,3.2c0.1,0.4,0.6,0.6,1,0.6L122.8,38.6z M67.6,21.9c11.2-4.3,20.7,12.3,22.2,15     c-1.3,0.1-2.6,0.2-3.8,0.4l-7.9-5c-0.4-0.3-1-0.2-1.3,0.2l-1.4,1.8l-3.6-2.1c-0.3-0.1-0.6-0.2-0.8-0.1c-0.3,0.1-0.5,0.3-0.6,0.6     l-1.4,3.6l-4.2,0.2c-0.5,0-0.8,0.5-0.8,1v8.7c0,0-0.1,0-0.1,0c-1.2,1.1-2.4,2.2-3.4,3.4C59.5,45.7,55.8,26.4,67.6,21.9z M83,37.8     c-7.2,1.3-13.1,3.8-17.1,7v-6.1l3.9-0.2c0.4,0,0.7-0.3,0.8-0.6l1.2-3.2l3.3,1.9c0.4,0.3,1,0.1,1.3-0.2l1.5-1.8L83,37.8z      M56.3,78.2c-2.4-9.1-0.7-18.9,4.7-26c6.4-8.4,17.7-13.1,32.6-13.3c0.4,0,0.8,0,1.2,0c12.5,0,21.9,2.7,28.1,8.2     c0.1,0.1,0.1,0.1,0.2,0.1c0.7,0.6,1.3,1.2,1.9,1.9c5.8,6.5,8.1,16,6.7,28.3c-0.7,6.5-3.2,11.2-7.7,13.7c-2.8,1.6-6.3,2-9.5,3     h-14.1c-2.1,0-4-0.5-5.9-0.5l-0.4,0.2c-1.8,0-3.7,0.4-5.6,0.4H72.4C65.4,93,59.2,89,56.3,78.2z M57.8,97.3c0-2.2,2-1.3,3.9-1.3     h10.6h16h11.9c0,0,14.6,0,14.2,0h15c1.1,0,1.4-0.7,1.4,1.3v3.9c0,2.7-0.6,3.8-1.4,3.8h-27c-0.8-1-1.6-1.6-2.6-2     c-0.1,0-0.1-0.2-0.1-0.3c0.1-1.3-0.3-2.5-1.3-3.3c-0.7-0.5-1.4-0.8-2.2-0.8c-1.6,0-3.1,1-3.5,2.8c-0.1,0.5-0.1,0.9,0,1.4     c-1.2,0.5-1.8,1.1-2.7,2l-4.8,0.2H61.8c-1.5,0-3.9-2.5-3.9-3.8V97.3z M94.5,104.2c0.6-0.1,1.2-0.2,1.8-0.2c0.5,0,1.1,0.1,1.6,0.2     c0.1,0,0.3,0,0.4,0c0.1,0,0.1,0,0.2,0c0.2,0.1,0.4,0.3,0.6,0.3c0.6,0.2,1.1,0.8,1.5,1.2c0,0,1.1,1.3,1,1.3h0.1     c0.2,0,0.3,0,0.5,0.2c0.3,0.4,0.6,0.6,0.8,1.1c-1.9,0.7-3.9,1-5.9,1.1c-0.3,0-0.7,0-1,0c-2.1,0-4.2-0.4-6.2-1     c-0.1,0-0.1,0-0.2-0.1c0.3-0.6,0.6-1.1,1-1.6c0.8-0.9,1.7-1.6,2.9-2.1c0.2-0.1,0.3-0.2,0.5-0.3c0,0,0.1,0,0.1,0     C94.2,104.3,94.4,104.2,94.5,104.2z M94.1,102.3c0-0.8,0.2-1.4,0.8-1.8c0.4-0.3,0.8-0.5,1.3-0.5c0.4,0,0.7,0.1,1.1,0.3     c0.7,0.4,1.1,1.2,1,1.9c-0.7-0.1-1.3-0.2-2-0.2C95.6,102,94.8,102.1,94.1,102.3z M47.7,106.5c1-1,2.4-1.5,4.3-1.5     c4.5,0,10.2,2.9,14.9,7.5c3,3,5.3,6.3,6.7,9.6c-0.3,0.1-0.5,0.2-0.7,0.4c-4,2.2-7,5.5-8.9,9.6c-3.3-1.2-6.7-3.5-9.8-6.5     C47.2,118.8,44.2,110,47.7,106.5z M73.8,124.2c0.2-0.1,0.3-0.2,0.5-0.2c1,3.4,0.7,6.1-0.9,7.6c-1,1-2.4,1.5-4.3,1.5     c-1,0-2.1-0.2-3.3-0.5C67.6,128.9,70.3,126,73.8,124.2z M55.5,176.1c-5.5-3.2-7.7-8.4-6.5-15.7c0.9-5.6,3.6-10.3,3.6-10.3     c0.2-0.3,0.2-0.7,0-1.1c-5.2-7.8-3.1-22.3-2.6-25.2c0.9,1.1,1.8,2.1,2.8,3.1c3.3,3.2,6.9,5.6,10.4,6.9c-0.7,1.9-1.2,3.8-1.5,5.9     c-1.1,7.1,0.3,15.3,4.5,22.9c3,5.6,7.1,10,11.7,13.2C75.5,177.6,67.2,182.8,55.5,176.1z M102.5,177.1c-2.7,1.5-5.7,2.2-8.9,2.2     c-9.9,0-20-6.9-25.8-17.6c-3.8-6.9-5.3-14.6-4.2-21.6c0.3-2,0.8-3.8,1.4-5.6c1.4,0.4,2.8,0.6,4.1,0.6c2.3,0,4.3-0.7,5.7-2.1     c2.2-2.2,2.5-5.8,1.3-9.9c0.7-0.2,1.3-0.5,2-0.6c1.5-0.4,3-0.5,4.6-0.5c9.9,0,20,6.9,25.8,17.6c3.9,7.1,5.4,15,4.2,22.2     C111.5,168.7,107.9,174.1,102.5,177.1z M137.1,146.1c-0.1,0.3-0.1,0.6,0,0.9c0.1,0.2,11.4,21.8-1.9,29.4     c-13.4,7.7-24.4-3.1-24.9-3.5c0,0-0.1,0-0.1-0.1c4.8-6.5,6.1-16,3.6-25.5c0.3-0.1,0.5-0.3,0.7-0.6c3-7,12.2-7.1,12.3-7.1     c0.6,0,1-0.4,1-1c0-0.6-0.4-1-1-1c-0.4,0-9.8,0.1-13.7,7.4c-0.7-2.2-1.7-4.3-2.8-6.4c-6.3-11.7-17.3-18.6-27.6-18.6     c-1.7,0-3.4,0.2-5.1,0.6c-0.8,0.2-1.5,0.4-2.2,0.7c-1.4-3.4-3.8-6.7-7.1-9.9c-1.9-1.9-4-3.4-6-4.4h26.1c-0.6,1-1,1.6-1.3,2.8     c0,0,0.1-0.1,0.1-0.1c0.6,0.2,1.3,0.4,1.9,0.6c2.2,0.7,4.5,1,6.8,1c0.4,0,0.7,0,1.1,0c2.9-0.1,5.6-0.8,8.2-2     c0.1-0.1,0.1,0.2,0.1,0.1c-0.3-1-0.7-1.4-1.2-2.4h25.2c2.8,0,3.1-3,3.1-4.8c0.4,0.2,1.3,0.5,2.1,1.2c0,0,0.2-0.1,0.2-0.1v16     c0,4.4,3.4,8.1,7.6,9.2C142.2,134.1,140.6,139.4,137.1,146.1z M153.8,119.3c0,4.1-4.1,7.6-8.6,7.6c-4.3,0-8.4-3.6-8.4-7.6V74     c0-4,4.1-7.6,8.5-7.6s8.5,3.6,8.5,7.6V119.3z"/></g></g></g></svg>